<mxfile host="Electron" modified="2023-05-19T14:50:07.104Z" agent="Mozilla/5.0 (X11; Linux x86_64) AppleWebKit/537.36 (KHTML, like Gecko) draw.io/21.2.8 Chrome/112.0.5615.165 Electron/24.2.0 Safari/537.36" etag="nBgJ7AIxsVUE6Iig0F3M" version="21.2.8" type="device">
  <diagram name="Page-1" id="bd10B8sxcmwaxITN1rPG">
    <mxGraphModel dx="2049" dy="1206" grid="1" gridSize="10" guides="1" tooltips="1" connect="1" arrows="1" fold="1" page="1" pageScale="1" pageWidth="850" pageHeight="1100" math="0" shadow="0">
      <root>
        <mxCell id="0" />
        <mxCell id="1" parent="0" />
        <mxCell id="--JaxDq5INa8CMyugxOd-23" style="edgeStyle=orthogonalEdgeStyle;rounded=0;orthogonalLoop=1;jettySize=auto;html=1;entryX=1;entryY=0.25;entryDx=0;entryDy=0;" parent="1" source="--JaxDq5INa8CMyugxOd-2" target="--JaxDq5INa8CMyugxOd-9" edge="1">
          <mxGeometry relative="1" as="geometry">
            <Array as="points">
              <mxPoint x="600" y="490" />
              <mxPoint x="600" y="490" />
            </Array>
          </mxGeometry>
        </mxCell>
        <mxCell id="--JaxDq5INa8CMyugxOd-24" value="Predictions" style="edgeLabel;html=1;align=center;verticalAlign=middle;resizable=0;points=[];" parent="--JaxDq5INa8CMyugxOd-23" vertex="1" connectable="0">
          <mxGeometry x="-0.1532" relative="1" as="geometry">
            <mxPoint x="-22" as="offset" />
          </mxGeometry>
        </mxCell>
        <mxCell id="--JaxDq5INa8CMyugxOd-2" value="Predictive &lt;br&gt;Models" style="rounded=0;whiteSpace=wrap;html=1;" parent="1" vertex="1">
          <mxGeometry x="690" y="470" width="160" height="80" as="geometry" />
        </mxCell>
        <mxCell id="--JaxDq5INa8CMyugxOd-32" style="edgeStyle=orthogonalEdgeStyle;rounded=0;orthogonalLoop=1;jettySize=auto;html=1;entryX=0;entryY=0.5;entryDx=0;entryDy=0;" parent="1" source="--JaxDq5INa8CMyugxOd-3" target="--JaxDq5INa8CMyugxOd-15" edge="1">
          <mxGeometry relative="1" as="geometry" />
        </mxCell>
        <mxCell id="--JaxDq5INa8CMyugxOd-33" value="Asset Analysis" style="edgeLabel;html=1;align=center;verticalAlign=middle;resizable=0;points=[];" parent="--JaxDq5INa8CMyugxOd-32" vertex="1" connectable="0">
          <mxGeometry x="-0.1896" y="-2" relative="1" as="geometry">
            <mxPoint x="9" y="-2" as="offset" />
          </mxGeometry>
        </mxCell>
        <mxCell id="--JaxDq5INa8CMyugxOd-3" value="Database" style="shape=cylinder3;whiteSpace=wrap;html=1;boundedLbl=1;backgroundOutline=1;size=15;" parent="1" vertex="1">
          <mxGeometry x="150" y="225" width="70" height="90" as="geometry" />
        </mxCell>
        <mxCell id="--JaxDq5INa8CMyugxOd-21" style="edgeStyle=orthogonalEdgeStyle;rounded=0;orthogonalLoop=1;jettySize=auto;html=1;entryX=0.008;entryY=0.25;entryDx=0;entryDy=0;entryPerimeter=0;" parent="1" source="--JaxDq5INa8CMyugxOd-5" target="--JaxDq5INa8CMyugxOd-9" edge="1">
          <mxGeometry relative="1" as="geometry">
            <Array as="points">
              <mxPoint x="210" y="490" />
              <mxPoint x="210" y="490" />
            </Array>
          </mxGeometry>
        </mxCell>
        <mxCell id="--JaxDq5INa8CMyugxOd-22" value="Analytics" style="edgeLabel;html=1;align=center;verticalAlign=middle;resizable=0;points=[];" parent="--JaxDq5INa8CMyugxOd-21" vertex="1" connectable="0">
          <mxGeometry x="-0.1303" y="-1" relative="1" as="geometry">
            <mxPoint x="9" as="offset" />
          </mxGeometry>
        </mxCell>
        <mxCell id="--JaxDq5INa8CMyugxOd-5" value="Technical&amp;nbsp;&lt;br&gt;Analysis" style="rounded=0;whiteSpace=wrap;html=1;" parent="1" vertex="1">
          <mxGeometry y="470" width="160" height="80" as="geometry" />
        </mxCell>
        <mxCell id="--JaxDq5INa8CMyugxOd-25" style="edgeStyle=orthogonalEdgeStyle;rounded=0;orthogonalLoop=1;jettySize=auto;html=1;" parent="1" source="--JaxDq5INa8CMyugxOd-7" target="--JaxDq5INa8CMyugxOd-5" edge="1">
          <mxGeometry relative="1" as="geometry">
            <Array as="points">
              <mxPoint x="80" y="810" />
            </Array>
          </mxGeometry>
        </mxCell>
        <mxCell id="--JaxDq5INa8CMyugxOd-26" value="Data" style="edgeLabel;html=1;align=center;verticalAlign=middle;resizable=0;points=[];" parent="--JaxDq5INa8CMyugxOd-25" vertex="1" connectable="0">
          <mxGeometry x="-0.3275" y="3" relative="1" as="geometry">
            <mxPoint as="offset" />
          </mxGeometry>
        </mxCell>
        <mxCell id="--JaxDq5INa8CMyugxOd-27" style="edgeStyle=orthogonalEdgeStyle;rounded=0;orthogonalLoop=1;jettySize=auto;html=1;entryX=0.5;entryY=1;entryDx=0;entryDy=0;" parent="1" source="--JaxDq5INa8CMyugxOd-7" target="--JaxDq5INa8CMyugxOd-2" edge="1">
          <mxGeometry relative="1" as="geometry" />
        </mxCell>
        <mxCell id="--JaxDq5INa8CMyugxOd-28" value="Data" style="edgeLabel;html=1;align=center;verticalAlign=middle;resizable=0;points=[];" parent="--JaxDq5INa8CMyugxOd-27" vertex="1" connectable="0">
          <mxGeometry x="-0.5165" y="3" relative="1" as="geometry">
            <mxPoint x="5" y="3" as="offset" />
          </mxGeometry>
        </mxCell>
        <mxCell id="--JaxDq5INa8CMyugxOd-7" value="Data&lt;br&gt;Fetcher" style="rounded=0;whiteSpace=wrap;html=1;" parent="1" vertex="1">
          <mxGeometry x="345" y="770" width="160" height="80" as="geometry" />
        </mxCell>
        <mxCell id="--JaxDq5INa8CMyugxOd-10" style="edgeStyle=orthogonalEdgeStyle;rounded=0;orthogonalLoop=1;jettySize=auto;html=1;endArrow=block;endFill=1;" parent="1" source="--JaxDq5INa8CMyugxOd-9" target="--JaxDq5INa8CMyugxOd-5" edge="1">
          <mxGeometry relative="1" as="geometry" />
        </mxCell>
        <mxCell id="--JaxDq5INa8CMyugxOd-12" value="Symbol" style="edgeLabel;html=1;align=center;verticalAlign=middle;resizable=0;points=[];" parent="--JaxDq5INa8CMyugxOd-10" vertex="1" connectable="0">
          <mxGeometry x="0.1351" y="1" relative="1" as="geometry">
            <mxPoint x="10" y="-1" as="offset" />
          </mxGeometry>
        </mxCell>
        <mxCell id="--JaxDq5INa8CMyugxOd-11" style="edgeStyle=orthogonalEdgeStyle;rounded=0;orthogonalLoop=1;jettySize=auto;html=1;entryX=0;entryY=0.5;entryDx=0;entryDy=0;" parent="1" source="--JaxDq5INa8CMyugxOd-9" target="--JaxDq5INa8CMyugxOd-2" edge="1">
          <mxGeometry relative="1" as="geometry" />
        </mxCell>
        <mxCell id="--JaxDq5INa8CMyugxOd-13" value="Symbol" style="edgeLabel;html=1;align=center;verticalAlign=middle;resizable=0;points=[];" parent="--JaxDq5INa8CMyugxOd-11" vertex="1" connectable="0">
          <mxGeometry x="-0.1351" y="-2" relative="1" as="geometry">
            <mxPoint as="offset" />
          </mxGeometry>
        </mxCell>
        <mxCell id="--JaxDq5INa8CMyugxOd-19" style="edgeStyle=orthogonalEdgeStyle;rounded=0;orthogonalLoop=1;jettySize=auto;html=1;entryX=0.5;entryY=1;entryDx=0;entryDy=0;entryPerimeter=0;" parent="1" source="--JaxDq5INa8CMyugxOd-9" target="--JaxDq5INa8CMyugxOd-3" edge="1">
          <mxGeometry relative="1" as="geometry">
            <Array as="points">
              <mxPoint x="425" y="410" />
              <mxPoint x="185" y="410" />
            </Array>
          </mxGeometry>
        </mxCell>
        <mxCell id="--JaxDq5INa8CMyugxOd-20" value="Asset Analysis" style="edgeLabel;html=1;align=center;verticalAlign=middle;resizable=0;points=[];" parent="--JaxDq5INa8CMyugxOd-19" vertex="1" connectable="0">
          <mxGeometry x="-0.04" y="3" relative="1" as="geometry">
            <mxPoint as="offset" />
          </mxGeometry>
        </mxCell>
        <mxCell id="--JaxDq5INa8CMyugxOd-9" value="Asset&lt;br&gt;Analysis" style="rounded=0;whiteSpace=wrap;html=1;" parent="1" vertex="1">
          <mxGeometry x="345" y="470" width="160" height="80" as="geometry" />
        </mxCell>
        <mxCell id="--JaxDq5INa8CMyugxOd-17" style="edgeStyle=orthogonalEdgeStyle;rounded=0;orthogonalLoop=1;jettySize=auto;html=1;entryX=0.5;entryY=1;entryDx=0;entryDy=0;" parent="1" source="--JaxDq5INa8CMyugxOd-15" target="--JaxDq5INa8CMyugxOd-16" edge="1">
          <mxGeometry relative="1" as="geometry" />
        </mxCell>
        <mxCell id="--JaxDq5INa8CMyugxOd-18" value="Order" style="edgeLabel;html=1;align=center;verticalAlign=middle;resizable=0;points=[];" parent="--JaxDq5INa8CMyugxOd-17" vertex="1" connectable="0">
          <mxGeometry x="-0.1733" y="-1" relative="1" as="geometry">
            <mxPoint as="offset" />
          </mxGeometry>
        </mxCell>
        <mxCell id="--JaxDq5INa8CMyugxOd-15" value="Trading&amp;nbsp;&lt;br&gt;Strategies" style="rounded=0;whiteSpace=wrap;html=1;" parent="1" vertex="1">
          <mxGeometry x="345" y="230" width="160" height="80" as="geometry" />
        </mxCell>
        <mxCell id="--JaxDq5INa8CMyugxOd-16" value="Trading&amp;nbsp;&lt;br&gt;Strategies" style="rounded=0;whiteSpace=wrap;html=1;" parent="1" vertex="1">
          <mxGeometry x="345" width="160" height="80" as="geometry" />
        </mxCell>
      </root>
    </mxGraphModel>
  </diagram>
</mxfile>
